<svg xmlns="http://www.w3.org/2000/svg" xmlns:xlink="http://www.w3.org/1999/xlink" viewBox="0 0 1084 322" preserveAspectRatio="xMidYMid" width="1084" height="322" style="shape-rendering: auto; background: rgb(8, 170, 225);"><defs data-idx="1">
  <pattern id="pid-0.9537317187634635" x="0" y="0" width="256" height="256" patternUnits="userSpaceOnUse" data-idx="2">
    <g id="pattern-group" transform="matrix(1,0,0,1,0,0)" data-idx="3"><g data-idx="4" transform="matrix(1,0,0,1,220.6719512939453,0)">
<path transform="matrix(0.40666666626930237,0,0,0.40666666626930237,258.64164674282074,216.85363221168518)" fill="#55bedb" d="M94.6,56.2c-1-4.2-3.7-7.6-7.2-9.5c1.6-1.7,2.7-4.1,2.7-6.7c0-5.4-4.4-9.7-9.7-9.7c-3.2,0-6.1,1.6-7.8,4 c-2.5-4.5-7.3-7.6-12.8-7.6c-3.4,0-6.4,1.1-8.9,3.1c-2.4-4.7-7.3-7.9-13-7.9c-5.6,0-10.5,3.2-12.9,7.8c-1.3-0.3-2.7-0.6-4.1-0.6 C12.1,29.1,5,36.1,5,44.9c0,6,3.4,11.3,8.3,13.9c-0.2,1.3-0.2,2.6,0.1,3.9c1.2,5.3,6.5,8.6,11.8,7.4c0.3-0.1,0.6-0.1,0.8-0.2 c2.9,6,9.6,9.5,16.4,8c5.5-1.3,9.6-5.5,10.9-10.6c2.8,1.3,6.1,1.7,9.4,1c1.8-0.4,3.4-1.1,4.8-2.1c3,5.7,9.6,9,16.2,7.5 C91.5,71.9,96.4,64,94.6,56.2z" data-idx="5"></path>
  
</g><g data-idx="7" transform="matrix(1,0,0,1,220.6719512939453,0)">
<path transform="matrix(0.40666666626930237,0,0,0.40666666626930237,258.64164674282074,-39.14637351036072)" fill="#55bedb" d="M94.6,56.2c-1-4.2-3.7-7.6-7.2-9.5c1.6-1.7,2.7-4.1,2.7-6.7c0-5.4-4.4-9.7-9.7-9.7c-3.2,0-6.1,1.6-7.8,4 c-2.5-4.5-7.3-7.6-12.8-7.6c-3.4,0-6.4,1.1-8.9,3.1c-2.4-4.7-7.3-7.9-13-7.9c-5.6,0-10.5,3.2-12.9,7.8c-1.3-0.3-2.7-0.6-4.1-0.6 C12.1,29.1,5,36.1,5,44.9c0,6,3.4,11.3,8.3,13.9c-0.2,1.3-0.2,2.6,0.1,3.9c1.2,5.3,6.5,8.6,11.8,7.4c0.3-0.1,0.6-0.1,0.8-0.2 c2.9,6,9.6,9.5,16.4,8c5.5-1.3,9.6-5.5,10.9-10.6c2.8,1.3,6.1,1.7,9.4,1c1.8-0.4,3.4-1.1,4.8-2.1c3,5.7,9.6,9,16.2,7.5 C91.5,71.9,96.4,64,94.6,56.2z" data-idx="8"></path>
  
</g><g data-idx="10" transform="matrix(1,0,0,1,220.6719512939453,0)">
<path transform="matrix(0.40666666626930237,0,0,0.40666666626930237,2.641642928123474,216.85363221168518)" fill="#55bedb" d="M94.6,56.2c-1-4.2-3.7-7.6-7.2-9.5c1.6-1.7,2.7-4.1,2.7-6.7c0-5.4-4.4-9.7-9.7-9.7c-3.2,0-6.1,1.6-7.8,4 c-2.5-4.5-7.3-7.6-12.8-7.6c-3.4,0-6.4,1.1-8.9,3.1c-2.4-4.7-7.3-7.9-13-7.9c-5.6,0-10.5,3.2-12.9,7.8c-1.3-0.3-2.7-0.6-4.1-0.6 C12.1,29.1,5,36.1,5,44.9c0,6,3.4,11.3,8.3,13.9c-0.2,1.3-0.2,2.6,0.1,3.9c1.2,5.3,6.5,8.6,11.8,7.4c0.3-0.1,0.6-0.1,0.8-0.2 c2.9,6,9.6,9.5,16.4,8c5.5-1.3,9.6-5.5,10.9-10.6c2.8,1.3,6.1,1.7,9.4,1c1.8-0.4,3.4-1.1,4.8-2.1c3,5.7,9.6,9,16.2,7.5 C91.5,71.9,96.4,64,94.6,56.2z" data-idx="11"></path>
  
</g><g data-idx="13" transform="matrix(1,0,0,1,220.6719512939453,0)">
<path transform="matrix(0.40666666626930237,0,0,0.40666666626930237,2.641642928123474,-39.14637351036072)" fill="#55bedb" d="M94.6,56.2c-1-4.2-3.7-7.6-7.2-9.5c1.6-1.7,2.7-4.1,2.7-6.7c0-5.4-4.4-9.7-9.7-9.7c-3.2,0-6.1,1.6-7.8,4 c-2.5-4.5-7.3-7.6-12.8-7.6c-3.4,0-6.4,1.1-8.9,3.1c-2.4-4.7-7.3-7.9-13-7.9c-5.6,0-10.5,3.2-12.9,7.8c-1.3-0.3-2.7-0.6-4.1-0.6 C12.1,29.1,5,36.1,5,44.9c0,6,3.4,11.3,8.3,13.9c-0.2,1.3-0.2,2.6,0.1,3.9c1.2,5.3,6.5,8.6,11.8,7.4c0.3-0.1,0.6-0.1,0.8-0.2 c2.9,6,9.6,9.5,16.4,8c5.5-1.3,9.6-5.5,10.9-10.6c2.8,1.3,6.1,1.7,9.4,1c1.8-0.4,3.4-1.1,4.8-2.1c3,5.7,9.6,9,16.2,7.5 C91.5,71.9,96.4,64,94.6,56.2z" data-idx="14"></path>
  
</g><g data-idx="16" transform="matrix(1,0,0,1,220.6719512939453,0)">
<path transform="matrix(0.40666666626930237,0,0,0.40666666626930237,-253.35835325717926,216.85363221168518)" fill="#55bedb" d="M94.6,56.2c-1-4.2-3.7-7.6-7.2-9.5c1.6-1.7,2.7-4.1,2.7-6.7c0-5.4-4.4-9.7-9.7-9.7c-3.2,0-6.1,1.6-7.8,4 c-2.5-4.5-7.3-7.6-12.8-7.6c-3.4,0-6.4,1.1-8.9,3.1c-2.4-4.7-7.3-7.9-13-7.9c-5.6,0-10.5,3.2-12.9,7.8c-1.3-0.3-2.7-0.6-4.1-0.6 C12.1,29.1,5,36.1,5,44.9c0,6,3.4,11.3,8.3,13.9c-0.2,1.3-0.2,2.6,0.1,3.9c1.2,5.3,6.5,8.6,11.8,7.4c0.3-0.1,0.6-0.1,0.8-0.2 c2.9,6,9.6,9.5,16.4,8c5.5-1.3,9.6-5.5,10.9-10.6c2.8,1.3,6.1,1.7,9.4,1c1.8-0.4,3.4-1.1,4.8-2.1c3,5.7,9.6,9,16.2,7.5 C91.5,71.9,96.4,64,94.6,56.2z" data-idx="17"></path>
  
</g><g data-idx="19" transform="matrix(1,0,0,1,220.6719512939453,0)">
<path transform="matrix(0.40666666626930237,0,0,0.40666666626930237,-253.35835325717926,-39.14637351036072)" fill="#55bedb" d="M94.6,56.2c-1-4.2-3.7-7.6-7.2-9.5c1.6-1.7,2.7-4.1,2.7-6.7c0-5.4-4.4-9.7-9.7-9.7c-3.2,0-6.1,1.6-7.8,4 c-2.5-4.5-7.3-7.6-12.8-7.6c-3.4,0-6.4,1.1-8.9,3.1c-2.4-4.7-7.3-7.9-13-7.9c-5.6,0-10.5,3.2-12.9,7.8c-1.3-0.3-2.7-0.6-4.1-0.6 C12.1,29.1,5,36.1,5,44.9c0,6,3.4,11.3,8.3,13.9c-0.2,1.3-0.2,2.6,0.1,3.9c1.2,5.3,6.5,8.6,11.8,7.4c0.3-0.1,0.6-0.1,0.8-0.2 c2.9,6,9.6,9.5,16.4,8c5.5-1.3,9.6-5.5,10.9-10.6c2.8,1.3,6.1,1.7,9.4,1c1.8-0.4,3.4-1.1,4.8-2.1c3,5.7,9.6,9,16.2,7.5 C91.5,71.9,96.4,64,94.6,56.2z" data-idx="20"></path>
  
</g><g data-idx="22" transform="matrix(1,0,0,1,220.6719512939453,0)">
<path transform="matrix(0.40666666626930237,0,0,0.40666666626930237,116.68246400356293,210.65978455543518)" fill="#55bedb" d="M85.3,55.6c0.3-1.1,0.5-2.2,0.6-3.4c0.5-8.5-6-15.7-14.5-16.2c-2.1-0.1-4.2,0.2-6,0.9c-1.5-8.9-9-16-18.4-16.5 C36.1,19.7,26.8,28,26.2,38.9c-0.1,1.1,0,2.3,0.1,3.3c-6.3,0.1-11.6,5-11.9,11.4c0,0.8,0,1.5,0.1,2.2c-0.3,0-0.5-0.1-0.8-0.1 C9.2,55.6,5.3,59,5,63.6s3.2,8.4,7.8,8.7c0.8,0,1.5,0,2.2-0.2c2.5,2.9,8,5.1,14.6,5.5c3.7,0.2,7.2-0.2,10-1.1 c1.7,1.8,4.3,3.1,7.3,3.2c4,0.2,7.5-1.6,9.3-4.3c2.1,1,4.6,1.7,7.4,1.9c4.5,0.3,8.6-1,11.1-3c2,1.7,4.6,2.8,7.6,3 C89,77.6,94.6,73,95,67C95.3,61.5,91.1,56.7,85.3,55.6z" data-idx="23"></path>
  
</g><g data-idx="25" transform="matrix(1,0,0,1,220.6719512939453,0)">
<path transform="matrix(0.40666666626930237,0,0,0.40666666626930237,116.68246400356293,-45.34021544456482)" fill="#55bedb" d="M85.3,55.6c0.3-1.1,0.5-2.2,0.6-3.4c0.5-8.5-6-15.7-14.5-16.2c-2.1-0.1-4.2,0.2-6,0.9c-1.5-8.9-9-16-18.4-16.5 C36.1,19.7,26.8,28,26.2,38.9c-0.1,1.1,0,2.3,0.1,3.3c-6.3,0.1-11.6,5-11.9,11.4c0,0.8,0,1.5,0.1,2.2c-0.3,0-0.5-0.1-0.8-0.1 C9.2,55.6,5.3,59,5,63.6s3.2,8.4,7.8,8.7c0.8,0,1.5,0,2.2-0.2c2.5,2.9,8,5.1,14.6,5.5c3.7,0.2,7.2-0.2,10-1.1 c1.7,1.8,4.3,3.1,7.3,3.2c4,0.2,7.5-1.6,9.3-4.3c2.1,1,4.6,1.7,7.4,1.9c4.5,0.3,8.6-1,11.1-3c2,1.7,4.6,2.8,7.6,3 C89,77.6,94.6,73,95,67C95.3,61.5,91.1,56.7,85.3,55.6z" data-idx="26"></path>
  
</g><g data-idx="28" transform="matrix(1,0,0,1,220.6719512939453,0)">
<path transform="matrix(0.40666666626930237,0,0,0.40666666626930237,-139.31752836704254,210.65978455543518)" fill="#55bedb" d="M85.3,55.6c0.3-1.1,0.5-2.2,0.6-3.4c0.5-8.5-6-15.7-14.5-16.2c-2.1-0.1-4.2,0.2-6,0.9c-1.5-8.9-9-16-18.4-16.5 C36.1,19.7,26.8,28,26.2,38.9c-0.1,1.1,0,2.3,0.1,3.3c-6.3,0.1-11.6,5-11.9,11.4c0,0.8,0,1.5,0.1,2.2c-0.3,0-0.5-0.1-0.8-0.1 C9.2,55.6,5.3,59,5,63.6s3.2,8.4,7.8,8.7c0.8,0,1.5,0,2.2-0.2c2.5,2.9,8,5.1,14.6,5.5c3.7,0.2,7.2-0.2,10-1.1 c1.7,1.8,4.3,3.1,7.3,3.2c4,0.2,7.5-1.6,9.3-4.3c2.1,1,4.6,1.7,7.4,1.9c4.5,0.3,8.6-1,11.1-3c2,1.7,4.6,2.8,7.6,3 C89,77.6,94.6,73,95,67C95.3,61.5,91.1,56.7,85.3,55.6z" data-idx="29"></path>
  
</g><g data-idx="31" transform="matrix(1,0,0,1,220.6719512939453,0)">
<path transform="matrix(0.40666666626930237,0,0,0.40666666626930237,-139.31752836704254,-45.34021544456482)" fill="#55bedb" d="M85.3,55.6c0.3-1.1,0.5-2.2,0.6-3.4c0.5-8.5-6-15.7-14.5-16.2c-2.1-0.1-4.2,0.2-6,0.9c-1.5-8.9-9-16-18.4-16.5 C36.1,19.7,26.8,28,26.2,38.9c-0.1,1.1,0,2.3,0.1,3.3c-6.3,0.1-11.6,5-11.9,11.4c0,0.8,0,1.5,0.1,2.2c-0.3,0-0.5-0.1-0.8-0.1 C9.2,55.6,5.3,59,5,63.6s3.2,8.4,7.8,8.7c0.8,0,1.5,0,2.2-0.2c2.5,2.9,8,5.1,14.6,5.5c3.7,0.2,7.2-0.2,10-1.1 c1.7,1.8,4.3,3.1,7.3,3.2c4,0.2,7.5-1.6,9.3-4.3c2.1,1,4.6,1.7,7.4,1.9c4.5,0.3,8.6-1,11.1-3c2,1.7,4.6,2.8,7.6,3 C89,77.6,94.6,73,95,67C95.3,61.5,91.1,56.7,85.3,55.6z" data-idx="32"></path>
  
</g><g data-idx="34" transform="matrix(1,0,0,1,220.6719512939453,0)">
<path transform="matrix(0.40666666626930237,0,0,0.40666666626930237,166.82296693325043,61.341638803482056)" fill="#55bedb" d="M95,62.4c-0.5-5.9-5.7-10.3-11.9-10.5c0-0.6,0-1.2,0-1.8c-0.7-7.6-7.9-13.1-16.1-12.4c-0.9,0.1-1.9,0.3-2.7,0.5 c0-0.1,0-0.2,0-0.2c-1-10.9-10.7-19-21.6-18c-9.8,0.9-17.3,8.8-18,18.3C12.8,39.5,4.1,49.2,5.1,60C6.1,71,16.5,79,28.4,77.9 c3.4-0.3,6.4-1.3,9.2-2.8c5,3.7,12.4,5.7,20.5,4.9c6.9-0.6,13.1-3.2,17.3-6.8c2.3,1.4,5.2,2.2,8.2,1.9C90.4,74.4,95.5,68.8,95,62.4z" data-idx="35"></path>
  
</g><g data-idx="37" transform="matrix(1,0,0,1,220.6719512939453,0)">
<path transform="matrix(0.40666666626930237,0,0,0.40666666626930237,-89.17702543735504,61.341638803482056)" fill="#55bedb" d="M95,62.4c-0.5-5.9-5.7-10.3-11.9-10.5c0-0.6,0-1.2,0-1.8c-0.7-7.6-7.9-13.1-16.1-12.4c-0.9,0.1-1.9,0.3-2.7,0.5 c0-0.1,0-0.2,0-0.2c-1-10.9-10.7-19-21.6-18c-9.8,0.9-17.3,8.8-18,18.3C12.8,39.5,4.1,49.2,5.1,60C6.1,71,16.5,79,28.4,77.9 c3.4-0.3,6.4-1.3,9.2-2.8c5,3.7,12.4,5.7,20.5,4.9c6.9-0.6,13.1-3.2,17.3-6.8c2.3,1.4,5.2,2.2,8.2,1.9C90.4,74.4,95.5,68.8,95,62.4z" data-idx="38"></path>
  
</g><g data-idx="40" transform="matrix(1,0,0,1,220.6719512939453,0)">
<path transform="matrix(0.40666666626930237,0,0,0.40666666626930237,197.6576989889145,144.34763550758362)" fill="#55bedb" d="M95,62.1c0-7.9-5.6-14.5-13.1-15.9C82,45.4,82,44.7,82,44c0-12.3-10-22.3-22.3-22.3c-9.5,0-17.7,6-20.8,14.4 c-1.2-0.3-2.4-0.5-3.7-0.5c-7.6,0-13.8,5.9-14.3,13.3c-0.9-0.2-1.9-0.3-2.8-0.3c-7.2,0-13,5.8-13,13c0,4.8,2.6,9,6.5,11.2 c0,0.1,0,0.1,0,0.2c0,4.7,3.8,8.5,8.5,8.5c2.7,0,5.1-1.3,6.7-3.2c0.1,0,0.2,0,0.3,0h10.4c2.4,2,5.4,3.2,8.7,3.2s6.4-1.2,8.7-3.2h0.2 c3.3,3.8,8.2,6.2,13.6,6.2c5.6,0,10.7-2.6,14-6.6C89.6,76.2,95,69.8,95,62.1z" data-idx="41"></path>
  
</g><g data-idx="43" transform="matrix(1,0,0,1,220.6719512939453,0)">
<path transform="matrix(0.40666666626930237,0,0,0.40666666626930237,-58.34230101108551,144.34763550758362)" fill="#55bedb" d="M95,62.1c0-7.9-5.6-14.5-13.1-15.9C82,45.4,82,44.7,82,44c0-12.3-10-22.3-22.3-22.3c-9.5,0-17.7,6-20.8,14.4 c-1.2-0.3-2.4-0.5-3.7-0.5c-7.6,0-13.8,5.9-14.3,13.3c-0.9-0.2-1.9-0.3-2.8-0.3c-7.2,0-13,5.8-13,13c0,4.8,2.6,9,6.5,11.2 c0,0.1,0,0.1,0,0.2c0,4.7,3.8,8.5,8.5,8.5c2.7,0,5.1-1.3,6.7-3.2c0.1,0,0.2,0,0.3,0h10.4c2.4,2,5.4,3.2,8.7,3.2s6.4-1.2,8.7-3.2h0.2 c3.3,3.8,8.2,6.2,13.6,6.2c5.6,0,10.7-2.6,14-6.6C89.6,76.2,95,69.8,95,62.1z" data-idx="44"></path>
  
</g><g data-idx="46" transform="matrix(1,0,0,1,185.34390258789062,0)">
<path transform="matrix(0.5083333253860474,0,0,0.5083333253860474,43.84148359298706,80.52138233184814)" fill="#90ddf0" d="M94.6,56.2c-1-4.2-3.7-7.6-7.2-9.5c1.6-1.7,2.7-4.1,2.7-6.7c0-5.4-4.4-9.7-9.7-9.7c-3.2,0-6.1,1.6-7.8,4 c-2.5-4.5-7.3-7.6-12.8-7.6c-3.4,0-6.4,1.1-8.9,3.1c-2.4-4.7-7.3-7.9-13-7.9c-5.6,0-10.5,3.2-12.9,7.8c-1.3-0.3-2.7-0.6-4.1-0.6 C12.1,29.1,5,36.1,5,44.9c0,6,3.4,11.3,8.3,13.9c-0.2,1.3-0.2,2.6,0.1,3.9c1.2,5.3,6.5,8.6,11.8,7.4c0.3-0.1,0.6-0.1,0.8-0.2 c2.9,6,9.6,9.5,16.4,8c5.5-1.3,9.6-5.5,10.9-10.6c2.8,1.3,6.1,1.7,9.4,1c1.8-0.4,3.4-1.1,4.8-2.1c3,5.7,9.6,9,16.2,7.5 C91.5,71.9,96.4,64,94.6,56.2z" data-idx="47"></path>
  
</g><g data-idx="49" transform="matrix(1,0,0,1,185.34390258789062,0)">
<path transform="matrix(0.5083333253860474,0,0,0.5083333253860474,-212.1585202217102,80.52138233184814)" fill="#90ddf0" d="M94.6,56.2c-1-4.2-3.7-7.6-7.2-9.5c1.6-1.7,2.7-4.1,2.7-6.7c0-5.4-4.4-9.7-9.7-9.7c-3.2,0-6.1,1.6-7.8,4 c-2.5-4.5-7.3-7.6-12.8-7.6c-3.4,0-6.4,1.1-8.9,3.1c-2.4-4.7-7.3-7.9-13-7.9c-5.6,0-10.5,3.2-12.9,7.8c-1.3-0.3-2.7-0.6-4.1-0.6 C12.1,29.1,5,36.1,5,44.9c0,6,3.4,11.3,8.3,13.9c-0.2,1.3-0.2,2.6,0.1,3.9c1.2,5.3,6.5,8.6,11.8,7.4c0.3-0.1,0.6-0.1,0.8-0.2 c2.9,6,9.6,9.5,16.4,8c5.5-1.3,9.6-5.5,10.9-10.6c2.8,1.3,6.1,1.7,9.4,1c1.8-0.4,3.4-1.1,4.8-2.1c3,5.7,9.6,9,16.2,7.5 C91.5,71.9,96.4,64,94.6,56.2z" data-idx="50"></path>
  
</g><g data-idx="52" transform="matrix(1,0,0,1,185.34390258789062,0)">
<path transform="matrix(0.5083333253860474,0,0,0.5083333253860474,50.36031675338745,144.27258014678955)" fill="#90ddf0" d="M85.3,55.6c0.3-1.1,0.5-2.2,0.6-3.4c0.5-8.5-6-15.7-14.5-16.2c-2.1-0.1-4.2,0.2-6,0.9c-1.5-8.9-9-16-18.4-16.5 C36.1,19.7,26.8,28,26.2,38.9c-0.1,1.1,0,2.3,0.1,3.3c-6.3,0.1-11.6,5-11.9,11.4c0,0.8,0,1.5,0.1,2.2c-0.3,0-0.5-0.1-0.8-0.1 C9.2,55.6,5.3,59,5,63.6s3.2,8.4,7.8,8.7c0.8,0,1.5,0,2.2-0.2c2.5,2.9,8,5.1,14.6,5.5c3.7,0.2,7.2-0.2,10-1.1 c1.7,1.8,4.3,3.1,7.3,3.2c4,0.2,7.5-1.6,9.3-4.3c2.1,1,4.6,1.7,7.4,1.9c4.5,0.3,8.6-1,11.1-3c2,1.7,4.6,2.8,7.6,3 C89,77.6,94.6,73,95,67C95.3,61.5,91.1,56.7,85.3,55.6z" data-idx="53"></path>
  
</g><g data-idx="55" transform="matrix(1,0,0,1,185.34390258789062,0)">
<path transform="matrix(0.5083333253860474,0,0,0.5083333253860474,-205.63967561721802,144.27258014678955)" fill="#90ddf0" d="M85.3,55.6c0.3-1.1,0.5-2.2,0.6-3.4c0.5-8.5-6-15.7-14.5-16.2c-2.1-0.1-4.2,0.2-6,0.9c-1.5-8.9-9-16-18.4-16.5 C36.1,19.7,26.8,28,26.2,38.9c-0.1,1.1,0,2.3,0.1,3.3c-6.3,0.1-11.6,5-11.9,11.4c0,0.8,0,1.5,0.1,2.2c-0.3,0-0.5-0.1-0.8-0.1 C9.2,55.6,5.3,59,5,63.6s3.2,8.4,7.8,8.7c0.8,0,1.5,0,2.2-0.2c2.5,2.9,8,5.1,14.6,5.5c3.7,0.2,7.2-0.2,10-1.1 c1.7,1.8,4.3,3.1,7.3,3.2c4,0.2,7.5-1.6,9.3-4.3c2.1,1,4.6,1.7,7.4,1.9c4.5,0.3,8.6-1,11.1-3c2,1.7,4.6,2.8,7.6,3 C89,77.6,94.6,73,95,67C95.3,61.5,91.1,56.7,85.3,55.6z" data-idx="56"></path>
  
</g><g data-idx="58" transform="matrix(1,0,0,1,185.34390258789062,0)">
<path transform="matrix(0.5083333253860474,0,0,0.5083333253860474,51.752551555633545,-10.41627562046051)" fill="#90ddf0" d="M95,62.4c-0.5-5.9-5.7-10.3-11.9-10.5c0-0.6,0-1.2,0-1.8c-0.7-7.6-7.9-13.1-16.1-12.4c-0.9,0.1-1.9,0.3-2.7,0.5 c0-0.1,0-0.2,0-0.2c-1-10.9-10.7-19-21.6-18c-9.8,0.9-17.3,8.8-18,18.3C12.8,39.5,4.1,49.2,5.1,60C6.1,71,16.5,79,28.4,77.9 c3.4-0.3,6.4-1.3,9.2-2.8c5,3.7,12.4,5.7,20.5,4.9c6.9-0.6,13.1-3.2,17.3-6.8c2.3,1.4,5.2,2.2,8.2,1.9C90.4,74.4,95.5,68.8,95,62.4z" data-idx="59"></path>
  
</g><g data-idx="61" transform="matrix(1,0,0,1,185.34390258789062,0)">
<path transform="matrix(0.5083333253860474,0,0,0.5083333253860474,51.752551555633545,245.583722114563)" fill="#90ddf0" d="M95,62.4c-0.5-5.9-5.7-10.3-11.9-10.5c0-0.6,0-1.2,0-1.8c-0.7-7.6-7.9-13.1-16.1-12.4c-0.9,0.1-1.9,0.3-2.7,0.5 c0-0.1,0-0.2,0-0.2c-1-10.9-10.7-19-21.6-18c-9.8,0.9-17.3,8.8-18,18.3C12.8,39.5,4.1,49.2,5.1,60C6.1,71,16.5,79,28.4,77.9 c3.4-0.3,6.4-1.3,9.2-2.8c5,3.7,12.4,5.7,20.5,4.9c6.9-0.6,13.1-3.2,17.3-6.8c2.3,1.4,5.2,2.2,8.2,1.9C90.4,74.4,95.5,68.8,95,62.4z" data-idx="62"></path>
  
</g><g data-idx="64" transform="matrix(1,0,0,1,185.34390258789062,0)">
<path transform="matrix(0.5083333253860474,0,0,0.5083333253860474,-204.24744844436646,-10.41627562046051)" fill="#90ddf0" d="M95,62.4c-0.5-5.9-5.7-10.3-11.9-10.5c0-0.6,0-1.2,0-1.8c-0.7-7.6-7.9-13.1-16.1-12.4c-0.9,0.1-1.9,0.3-2.7,0.5 c0-0.1,0-0.2,0-0.2c-1-10.9-10.7-19-21.6-18c-9.8,0.9-17.3,8.8-18,18.3C12.8,39.5,4.1,49.2,5.1,60C6.1,71,16.5,79,28.4,77.9 c3.4-0.3,6.4-1.3,9.2-2.8c5,3.7,12.4,5.7,20.5,4.9c6.9-0.6,13.1-3.2,17.3-6.8c2.3,1.4,5.2,2.2,8.2,1.9C90.4,74.4,95.5,68.8,95,62.4z" data-idx="65"></path>
  
</g><g data-idx="67" transform="matrix(1,0,0,1,185.34390258789062,0)">
<path transform="matrix(0.5083333253860474,0,0,0.5083333253860474,-204.24744844436646,245.583722114563)" fill="#90ddf0" d="M95,62.4c-0.5-5.9-5.7-10.3-11.9-10.5c0-0.6,0-1.2,0-1.8c-0.7-7.6-7.9-13.1-16.1-12.4c-0.9,0.1-1.9,0.3-2.7,0.5 c0-0.1,0-0.2,0-0.2c-1-10.9-10.7-19-21.6-18c-9.8,0.9-17.3,8.8-18,18.3C12.8,39.5,4.1,49.2,5.1,60C6.1,71,16.5,79,28.4,77.9 c3.4-0.3,6.4-1.3,9.2-2.8c5,3.7,12.4,5.7,20.5,4.9c6.9-0.6,13.1-3.2,17.3-6.8c2.3,1.4,5.2,2.2,8.2,1.9C90.4,74.4,95.5,68.8,95,62.4z" data-idx="68"></path>
  
</g><g data-idx="70" transform="matrix(1,0,0,1,185.34390258789062,0)">
<path transform="matrix(0.5083333253860474,0,0,0.5083333253860474,152.36851835250854,27.776597023010254)" fill="#90ddf0" d="M95,62.1c0-7.9-5.6-14.5-13.1-15.9C82,45.4,82,44.7,82,44c0-12.3-10-22.3-22.3-22.3c-9.5,0-17.7,6-20.8,14.4 c-1.2-0.3-2.4-0.5-3.7-0.5c-7.6,0-13.8,5.9-14.3,13.3c-0.9-0.2-1.9-0.3-2.8-0.3c-7.2,0-13,5.8-13,13c0,4.8,2.6,9,6.5,11.2 c0,0.1,0,0.1,0,0.2c0,4.7,3.8,8.5,8.5,8.5c2.7,0,5.1-1.3,6.7-3.2c0.1,0,0.2,0,0.3,0h10.4c2.4,2,5.4,3.2,8.7,3.2s6.4-1.2,8.7-3.2h0.2 c3.3,3.8,8.2,6.2,13.6,6.2c5.6,0,10.7-2.6,14-6.6C89.6,76.2,95,69.8,95,62.1z" data-idx="71"></path>
  
</g><g data-idx="73" transform="matrix(1,0,0,1,185.34390258789062,0)">
<path transform="matrix(0.5083333253860474,0,0,0.5083333253860474,152.36851835250854,283.776593208313)" fill="#90ddf0" d="M95,62.1c0-7.9-5.6-14.5-13.1-15.9C82,45.4,82,44.7,82,44c0-12.3-10-22.3-22.3-22.3c-9.5,0-17.7,6-20.8,14.4 c-1.2-0.3-2.4-0.5-3.7-0.5c-7.6,0-13.8,5.9-14.3,13.3c-0.9-0.2-1.9-0.3-2.8-0.3c-7.2,0-13,5.8-13,13c0,4.8,2.6,9,6.5,11.2 c0,0.1,0,0.1,0,0.2c0,4.7,3.8,8.5,8.5,8.5c2.7,0,5.1-1.3,6.7-3.2c0.1,0,0.2,0,0.3,0h10.4c2.4,2,5.4,3.2,8.7,3.2s6.4-1.2,8.7-3.2h0.2 c3.3,3.8,8.2,6.2,13.6,6.2c5.6,0,10.7-2.6,14-6.6C89.6,76.2,95,69.8,95,62.1z" data-idx="74"></path>
  
</g><g data-idx="76" transform="matrix(1,0,0,1,185.34390258789062,0)">
<path transform="matrix(0.5083333253860474,0,0,0.5083333253860474,-103.63147401809692,27.776597023010254)" fill="#90ddf0" d="M95,62.1c0-7.9-5.6-14.5-13.1-15.9C82,45.4,82,44.7,82,44c0-12.3-10-22.3-22.3-22.3c-9.5,0-17.7,6-20.8,14.4 c-1.2-0.3-2.4-0.5-3.7-0.5c-7.6,0-13.8,5.9-14.3,13.3c-0.9-0.2-1.9-0.3-2.8-0.3c-7.2,0-13,5.8-13,13c0,4.8,2.6,9,6.5,11.2 c0,0.1,0,0.1,0,0.2c0,4.7,3.8,8.5,8.5,8.5c2.7,0,5.1-1.3,6.7-3.2c0.1,0,0.2,0,0.3,0h10.4c2.4,2,5.4,3.2,8.7,3.2s6.4-1.2,8.7-3.2h0.2 c3.3,3.8,8.2,6.2,13.6,6.2c5.6,0,10.7-2.6,14-6.6C89.6,76.2,95,69.8,95,62.1z" data-idx="77"></path>
  
</g><g data-idx="79" transform="matrix(1,0,0,1,185.34390258789062,0)">
<path transform="matrix(0.5083333253860474,0,0,0.5083333253860474,-103.63147401809692,283.776593208313)" fill="#90ddf0" d="M95,62.1c0-7.9-5.6-14.5-13.1-15.9C82,45.4,82,44.7,82,44c0-12.3-10-22.3-22.3-22.3c-9.5,0-17.7,6-20.8,14.4 c-1.2-0.3-2.4-0.5-3.7-0.5c-7.6,0-13.8,5.9-14.3,13.3c-0.9-0.2-1.9-0.3-2.8-0.3c-7.2,0-13,5.8-13,13c0,4.8,2.6,9,6.5,11.2 c0,0.1,0,0.1,0,0.2c0,4.7,3.8,8.5,8.5,8.5c2.7,0,5.1-1.3,6.7-3.2c0.1,0,0.2,0,0.3,0h10.4c2.4,2,5.4,3.2,8.7,3.2s6.4-1.2,8.7-3.2h0.2 c3.3,3.8,8.2,6.2,13.6,6.2c5.6,0,10.7-2.6,14-6.6C89.6,76.2,95,69.8,95,62.1z" data-idx="80"></path>
  
</g><g data-idx="82" transform="matrix(1,0,0,1,150.01702880859375,0)">
<path transform="matrix(0.6100000143051147,0,0,0.6100000143051147,45.8672776222229,11.614924430847168)" fill="#afecf6" d="M94.6,56.2c-1-4.2-3.7-7.6-7.2-9.5c1.6-1.7,2.7-4.1,2.7-6.7c0-5.4-4.4-9.7-9.7-9.7c-3.2,0-6.1,1.6-7.8,4 c-2.5-4.5-7.3-7.6-12.8-7.6c-3.4,0-6.4,1.1-8.9,3.1c-2.4-4.7-7.3-7.9-13-7.9c-5.6,0-10.5,3.2-12.9,7.8c-1.3-0.3-2.7-0.6-4.1-0.6 C12.1,29.1,5,36.1,5,44.9c0,6,3.4,11.3,8.3,13.9c-0.2,1.3-0.2,2.6,0.1,3.9c1.2,5.3,6.5,8.6,11.8,7.4c0.3-0.1,0.6-0.1,0.8-0.2 c2.9,6,9.6,9.5,16.4,8c5.5-1.3,9.6-5.5,10.9-10.6c2.8,1.3,6.1,1.7,9.4,1c1.8-0.4,3.4-1.1,4.8-2.1c3,5.7,9.6,9,16.2,7.5 C91.5,71.9,96.4,64,94.6,56.2z" data-idx="83"></path>
  
</g><g data-idx="85" transform="matrix(1,0,0,1,150.01702880859375,0)">
<path transform="matrix(0.6100000143051147,0,0,0.6100000143051147,45.8672776222229,267.61491298675537)" fill="#afecf6" d="M94.6,56.2c-1-4.2-3.7-7.6-7.2-9.5c1.6-1.7,2.7-4.1,2.7-6.7c0-5.4-4.4-9.7-9.7-9.7c-3.2,0-6.1,1.6-7.8,4 c-2.5-4.5-7.3-7.6-12.8-7.6c-3.4,0-6.4,1.1-8.9,3.1c-2.4-4.7-7.3-7.9-13-7.9c-5.6,0-10.5,3.2-12.9,7.8c-1.3-0.3-2.7-0.6-4.1-0.6 C12.1,29.1,5,36.1,5,44.9c0,6,3.4,11.3,8.3,13.9c-0.2,1.3-0.2,2.6,0.1,3.9c1.2,5.3,6.5,8.6,11.8,7.4c0.3-0.1,0.6-0.1,0.8-0.2 c2.9,6,9.6,9.5,16.4,8c5.5-1.3,9.6-5.5,10.9-10.6c2.8,1.3,6.1,1.7,9.4,1c1.8-0.4,3.4-1.1,4.8-2.1c3,5.7,9.6,9,16.2,7.5 C91.5,71.9,96.4,64,94.6,56.2z" data-idx="86"></path>
  
</g><g data-idx="88" transform="matrix(1,0,0,1,150.01702880859375,0)">
<path transform="matrix(0.6100000143051147,0,0,0.6100000143051147,-210.13271474838257,11.614924430847168)" fill="#afecf6" d="M94.6,56.2c-1-4.2-3.7-7.6-7.2-9.5c1.6-1.7,2.7-4.1,2.7-6.7c0-5.4-4.4-9.7-9.7-9.7c-3.2,0-6.1,1.6-7.8,4 c-2.5-4.5-7.3-7.6-12.8-7.6c-3.4,0-6.4,1.1-8.9,3.1c-2.4-4.7-7.3-7.9-13-7.9c-5.6,0-10.5,3.2-12.9,7.8c-1.3-0.3-2.7-0.6-4.1-0.6 C12.1,29.1,5,36.1,5,44.9c0,6,3.4,11.3,8.3,13.9c-0.2,1.3-0.2,2.6,0.1,3.9c1.2,5.3,6.5,8.6,11.8,7.4c0.3-0.1,0.6-0.1,0.8-0.2 c2.9,6,9.6,9.5,16.4,8c5.5-1.3,9.6-5.5,10.9-10.6c2.8,1.3,6.1,1.7,9.4,1c1.8-0.4,3.4-1.1,4.8-2.1c3,5.7,9.6,9,16.2,7.5 C91.5,71.9,96.4,64,94.6,56.2z" data-idx="89"></path>
  
</g><g data-idx="91" transform="matrix(1,0,0,1,150.01702880859375,0)">
<path transform="matrix(0.6100000143051147,0,0,0.6100000143051147,-210.13271474838257,267.61491298675537)" fill="#afecf6" d="M94.6,56.2c-1-4.2-3.7-7.6-7.2-9.5c1.6-1.7,2.7-4.1,2.7-6.7c0-5.4-4.4-9.7-9.7-9.7c-3.2,0-6.1,1.6-7.8,4 c-2.5-4.5-7.3-7.6-12.8-7.6c-3.4,0-6.4,1.1-8.9,3.1c-2.4-4.7-7.3-7.9-13-7.9c-5.6,0-10.5,3.2-12.9,7.8c-1.3-0.3-2.7-0.6-4.1-0.6 C12.1,29.1,5,36.1,5,44.9c0,6,3.4,11.3,8.3,13.9c-0.2,1.3-0.2,2.6,0.1,3.9c1.2,5.3,6.5,8.6,11.8,7.4c0.3-0.1,0.6-0.1,0.8-0.2 c2.9,6,9.6,9.5,16.4,8c5.5-1.3,9.6-5.5,10.9-10.6c2.8,1.3,6.1,1.7,9.4,1c1.8-0.4,3.4-1.1,4.8-2.1c3,5.7,9.6,9,16.2,7.5 C91.5,71.9,96.4,64,94.6,56.2z" data-idx="92"></path>
  
</g><g data-idx="94" transform="matrix(1,0,0,1,150.01702880859375,0)">
<path transform="matrix(0.6100000143051147,0,0,0.6100000143051147,83.59809732437134,190.12448024749756)" fill="#afecf6" d="M85.3,55.6c0.3-1.1,0.5-2.2,0.6-3.4c0.5-8.5-6-15.7-14.5-16.2c-2.1-0.1-4.2,0.2-6,0.9c-1.5-8.9-9-16-18.4-16.5 C36.1,19.7,26.8,28,26.2,38.9c-0.1,1.1,0,2.3,0.1,3.3c-6.3,0.1-11.6,5-11.9,11.4c0,0.8,0,1.5,0.1,2.2c-0.3,0-0.5-0.1-0.8-0.1 C9.2,55.6,5.3,59,5,63.6s3.2,8.4,7.8,8.7c0.8,0,1.5,0,2.2-0.2c2.5,2.9,8,5.1,14.6,5.5c3.7,0.2,7.2-0.2,10-1.1 c1.7,1.8,4.3,3.1,7.3,3.2c4,0.2,7.5-1.6,9.3-4.3c2.1,1,4.6,1.7,7.4,1.9c4.5,0.3,8.6-1,11.1-3c2,1.7,4.6,2.8,7.6,3 C89,77.6,94.6,73,95,67C95.3,61.5,91.1,56.7,85.3,55.6z" data-idx="95"></path>
  
</g><g data-idx="97" transform="matrix(1,0,0,1,150.01702880859375,0)">
<path transform="matrix(0.6100000143051147,0,0,0.6100000143051147,-172.4019103050232,190.12448024749756)" fill="#afecf6" d="M85.3,55.6c0.3-1.1,0.5-2.2,0.6-3.4c0.5-8.5-6-15.7-14.5-16.2c-2.1-0.1-4.2,0.2-6,0.9c-1.5-8.9-9-16-18.4-16.5 C36.1,19.7,26.8,28,26.2,38.9c-0.1,1.1,0,2.3,0.1,3.3c-6.3,0.1-11.6,5-11.9,11.4c0,0.8,0,1.5,0.1,2.2c-0.3,0-0.5-0.1-0.8-0.1 C9.2,55.6,5.3,59,5,63.6s3.2,8.4,7.8,8.7c0.8,0,1.5,0,2.2-0.2c2.5,2.9,8,5.1,14.6,5.5c3.7,0.2,7.2-0.2,10-1.1 c1.7,1.8,4.3,3.1,7.3,3.2c4,0.2,7.5-1.6,9.3-4.3c2.1,1,4.6,1.7,7.4,1.9c4.5,0.3,8.6-1,11.1-3c2,1.7,4.6,2.8,7.6,3 C89,77.6,94.6,73,95,67C95.3,61.5,91.1,56.7,85.3,55.6z" data-idx="98"></path>
  
</g><g data-idx="100" transform="matrix(1,0,0,1,150.01702880859375,0)">
<path transform="matrix(0.6100000143051147,0,0,0.6100000143051147,-280.9251494407654,155.77313137054443)" fill="#afecf6" d="M95,62.4c-0.5-5.9-5.7-10.3-11.9-10.5c0-0.6,0-1.2,0-1.8c-0.7-7.6-7.9-13.1-16.1-12.4c-0.9,0.1-1.9,0.3-2.7,0.5 c0-0.1,0-0.2,0-0.2c-1-10.9-10.7-19-21.6-18c-9.8,0.9-17.3,8.8-18,18.3C12.8,39.5,4.1,49.2,5.1,60C6.1,71,16.5,79,28.4,77.9 c3.4-0.3,6.4-1.3,9.2-2.8c5,3.7,12.4,5.7,20.5,4.9c6.9-0.6,13.1-3.2,17.3-6.8c2.3,1.4,5.2,2.2,8.2,1.9C90.4,74.4,95.5,68.8,95,62.4z" data-idx="101"></path>
  
</g><g data-idx="103" transform="matrix(1,0,0,1,150.01702880859375,0)">
<path transform="matrix(0.6100000143051147,0,0,0.6100000143051147,231.07486581802368,155.77313137054443)" fill="#afecf6" d="M95,62.4c-0.5-5.9-5.7-10.3-11.9-10.5c0-0.6,0-1.2,0-1.8c-0.7-7.6-7.9-13.1-16.1-12.4c-0.9,0.1-1.9,0.3-2.7,0.5 c0-0.1,0-0.2,0-0.2c-1-10.9-10.7-19-21.6-18c-9.8,0.9-17.3,8.8-18,18.3C12.8,39.5,4.1,49.2,5.1,60C6.1,71,16.5,79,28.4,77.9 c3.4-0.3,6.4-1.3,9.2-2.8c5,3.7,12.4,5.7,20.5,4.9c6.9-0.6,13.1-3.2,17.3-6.8c2.3,1.4,5.2,2.2,8.2,1.9C90.4,74.4,95.5,68.8,95,62.4z" data-idx="104"></path>
  
</g><g data-idx="106" transform="matrix(1,0,0,1,150.01702880859375,0)">
<path transform="matrix(0.6100000143051147,0,0,0.6100000143051147,-24.925134420394897,155.77313137054443)" fill="#afecf6" d="M95,62.4c-0.5-5.9-5.7-10.3-11.9-10.5c0-0.6,0-1.2,0-1.8c-0.7-7.6-7.9-13.1-16.1-12.4c-0.9,0.1-1.9,0.3-2.7,0.5 c0-0.1,0-0.2,0-0.2c-1-10.9-10.7-19-21.6-18c-9.8,0.9-17.3,8.8-18,18.3C12.8,39.5,4.1,49.2,5.1,60C6.1,71,16.5,79,28.4,77.9 c3.4-0.3,6.4-1.3,9.2-2.8c5,3.7,12.4,5.7,20.5,4.9c6.9-0.6,13.1-3.2,17.3-6.8c2.3,1.4,5.2,2.2,8.2,1.9C90.4,74.4,95.5,68.8,95,62.4z" data-idx="107"></path>
  
</g><g data-idx="109" transform="matrix(1,0,0,1,150.01702880859375,0)">
<path transform="matrix(0.6100000143051147,0,0,0.6100000143051147,45.77979135513306,110.28891658782959)" fill="#afecf6" d="M95,62.1c0-7.9-5.6-14.5-13.1-15.9C82,45.4,82,44.7,82,44c0-12.3-10-22.3-22.3-22.3c-9.5,0-17.7,6-20.8,14.4 c-1.2-0.3-2.4-0.5-3.7-0.5c-7.6,0-13.8,5.9-14.3,13.3c-0.9-0.2-1.9-0.3-2.8-0.3c-7.2,0-13,5.8-13,13c0,4.8,2.6,9,6.5,11.2 c0,0.1,0,0.1,0,0.2c0,4.7,3.8,8.5,8.5,8.5c2.7,0,5.1-1.3,6.7-3.2c0.1,0,0.2,0,0.3,0h10.4c2.4,2,5.4,3.2,8.7,3.2s6.4-1.2,8.7-3.2h0.2 c3.3,3.8,8.2,6.2,13.6,6.2c5.6,0,10.7-2.6,14-6.6C89.6,76.2,95,69.8,95,62.1z" data-idx="110"></path>
  
</g><g data-idx="112" transform="matrix(1,0,0,1,150.01702880859375,0)">
<path transform="matrix(0.6100000143051147,0,0,0.6100000143051147,-210.22020864486694,110.28891658782959)" fill="#afecf6" d="M95,62.1c0-7.9-5.6-14.5-13.1-15.9C82,45.4,82,44.7,82,44c0-12.3-10-22.3-22.3-22.3c-9.5,0-17.7,6-20.8,14.4 c-1.2-0.3-2.4-0.5-3.7-0.5c-7.6,0-13.8,5.9-14.3,13.3c-0.9-0.2-1.9-0.3-2.8-0.3c-7.2,0-13,5.8-13,13c0,4.8,2.6,9,6.5,11.2 c0,0.1,0,0.1,0,0.2c0,4.7,3.8,8.5,8.5,8.5c2.7,0,5.1-1.3,6.7-3.2c0.1,0,0.2,0,0.3,0h10.4c2.4,2,5.4,3.2,8.7,3.2s6.4-1.2,8.7-3.2h0.2 c3.3,3.8,8.2,6.2,13.6,6.2c5.6,0,10.7-2.6,14-6.6C89.6,76.2,95,69.8,95,62.1z" data-idx="113"></path>
  
</g><g data-idx="115" transform="matrix(1,0,0,1,114.68779754638672,0)">
<path transform="matrix(0.7116666436195374,0,0,0.7116666436195374,91.15929007530212,164.2406792640686)" fill="#ffffff" d="M94.6,56.2c-1-4.2-3.7-7.6-7.2-9.5c1.6-1.7,2.7-4.1,2.7-6.7c0-5.4-4.4-9.7-9.7-9.7c-3.2,0-6.1,1.6-7.8,4 c-2.5-4.5-7.3-7.6-12.8-7.6c-3.4,0-6.4,1.1-8.9,3.1c-2.4-4.7-7.3-7.9-13-7.9c-5.6,0-10.5,3.2-12.9,7.8c-1.3-0.3-2.7-0.6-4.1-0.6 C12.1,29.1,5,36.1,5,44.9c0,6,3.4,11.3,8.3,13.9c-0.2,1.3-0.2,2.6,0.1,3.9c1.2,5.3,6.5,8.6,11.8,7.4c0.3-0.1,0.6-0.1,0.8-0.2 c2.9,6,9.6,9.5,16.4,8c5.5-1.3,9.6-5.5,10.9-10.6c2.8,1.3,6.1,1.7,9.4,1c1.8-0.4,3.4-1.1,4.8-2.1c3,5.7,9.6,9,16.2,7.5 C91.5,71.9,96.4,64,94.6,56.2z" data-idx="116"></path>
  
</g><g data-idx="118" transform="matrix(1,0,0,1,114.68779754638672,0)">
<path transform="matrix(0.7116666436195374,0,0,0.7116666436195374,-164.84070229530334,164.2406792640686)" fill="#ffffff" d="M94.6,56.2c-1-4.2-3.7-7.6-7.2-9.5c1.6-1.7,2.7-4.1,2.7-6.7c0-5.4-4.4-9.7-9.7-9.7c-3.2,0-6.1,1.6-7.8,4 c-2.5-4.5-7.3-7.6-12.8-7.6c-3.4,0-6.4,1.1-8.9,3.1c-2.4-4.7-7.3-7.9-13-7.9c-5.6,0-10.5,3.2-12.9,7.8c-1.3-0.3-2.7-0.6-4.1-0.6 C12.1,29.1,5,36.1,5,44.9c0,6,3.4,11.3,8.3,13.9c-0.2,1.3-0.2,2.6,0.1,3.9c1.2,5.3,6.5,8.6,11.8,7.4c0.3-0.1,0.6-0.1,0.8-0.2 c2.9,6,9.6,9.5,16.4,8c5.5-1.3,9.6-5.5,10.9-10.6c2.8,1.3,6.1,1.7,9.4,1c1.8-0.4,3.4-1.1,4.8-2.1c3,5.7,9.6,9,16.2,7.5 C91.5,71.9,96.4,64,94.6,56.2z" data-idx="119"></path>
  
</g><g data-idx="121" transform="matrix(1,0,0,1,114.68779754638672,0)">
<path transform="matrix(0.7116666436195374,0,0,0.7116666436195374,25.597003698349,236.56682062149048)" fill="#ffffff" d="M85.3,55.6c0.3-1.1,0.5-2.2,0.6-3.4c0.5-8.5-6-15.7-14.5-16.2c-2.1-0.1-4.2,0.2-6,0.9c-1.5-8.9-9-16-18.4-16.5 C36.1,19.7,26.8,28,26.2,38.9c-0.1,1.1,0,2.3,0.1,3.3c-6.3,0.1-11.6,5-11.9,11.4c0,0.8,0,1.5,0.1,2.2c-0.3,0-0.5-0.1-0.8-0.1 C9.2,55.6,5.3,59,5,63.6s3.2,8.4,7.8,8.7c0.8,0,1.5,0,2.2-0.2c2.5,2.9,8,5.1,14.6,5.5c3.7,0.2,7.2-0.2,10-1.1 c1.7,1.8,4.3,3.1,7.3,3.2c4,0.2,7.5-1.6,9.3-4.3c2.1,1,4.6,1.7,7.4,1.9c4.5,0.3,8.6-1,11.1-3c2,1.7,4.6,2.8,7.6,3 C89,77.6,94.6,73,95,67C95.3,61.5,91.1,56.7,85.3,55.6z" data-idx="122"></path>
  
</g><g data-idx="124" transform="matrix(1,0,0,1,114.68779754638672,0)">
<path transform="matrix(0.7116666436195374,0,0,0.7116666436195374,25.597003698349,-19.433172702789307)" fill="#ffffff" d="M85.3,55.6c0.3-1.1,0.5-2.2,0.6-3.4c0.5-8.5-6-15.7-14.5-16.2c-2.1-0.1-4.2,0.2-6,0.9c-1.5-8.9-9-16-18.4-16.5 C36.1,19.7,26.8,28,26.2,38.9c-0.1,1.1,0,2.3,0.1,3.3c-6.3,0.1-11.6,5-11.9,11.4c0,0.8,0,1.5,0.1,2.2c-0.3,0-0.5-0.1-0.8-0.1 C9.2,55.6,5.3,59,5,63.6s3.2,8.4,7.8,8.7c0.8,0,1.5,0,2.2-0.2c2.5,2.9,8,5.1,14.6,5.5c3.7,0.2,7.2-0.2,10-1.1 c1.7,1.8,4.3,3.1,7.3,3.2c4,0.2,7.5-1.6,9.3-4.3c2.1,1,4.6,1.7,7.4,1.9c4.5,0.3,8.6-1,11.1-3c2,1.7,4.6,2.8,7.6,3 C89,77.6,94.6,73,95,67C95.3,61.5,91.1,56.7,85.3,55.6z" data-idx="125"></path>
  
</g><g data-idx="127" transform="matrix(1,0,0,1,114.68779754638672,0)">
<path transform="matrix(0.7116666436195374,0,0,0.7116666436195374,-230.40298867225647,236.56682062149048)" fill="#ffffff" d="M85.3,55.6c0.3-1.1,0.5-2.2,0.6-3.4c0.5-8.5-6-15.7-14.5-16.2c-2.1-0.1-4.2,0.2-6,0.9c-1.5-8.9-9-16-18.4-16.5 C36.1,19.7,26.8,28,26.2,38.9c-0.1,1.1,0,2.3,0.1,3.3c-6.3,0.1-11.6,5-11.9,11.4c0,0.8,0,1.5,0.1,2.2c-0.3,0-0.5-0.1-0.8-0.1 C9.2,55.6,5.3,59,5,63.6s3.2,8.4,7.8,8.7c0.8,0,1.5,0,2.2-0.2c2.5,2.9,8,5.1,14.6,5.5c3.7,0.2,7.2-0.2,10-1.1 c1.7,1.8,4.3,3.1,7.3,3.2c4,0.2,7.5-1.6,9.3-4.3c2.1,1,4.6,1.7,7.4,1.9c4.5,0.3,8.6-1,11.1-3c2,1.7,4.6,2.8,7.6,3 C89,77.6,94.6,73,95,67C95.3,61.5,91.1,56.7,85.3,55.6z" data-idx="128"></path>
  
</g><g data-idx="130" transform="matrix(1,0,0,1,114.68779754638672,0)">
<path transform="matrix(0.7116666436195374,0,0,0.7116666436195374,-230.40298867225647,-19.433172702789307)" fill="#ffffff" d="M85.3,55.6c0.3-1.1,0.5-2.2,0.6-3.4c0.5-8.5-6-15.7-14.5-16.2c-2.1-0.1-4.2,0.2-6,0.9c-1.5-8.9-9-16-18.4-16.5 C36.1,19.7,26.8,28,26.2,38.9c-0.1,1.1,0,2.3,0.1,3.3c-6.3,0.1-11.6,5-11.9,11.4c0,0.8,0,1.5,0.1,2.2c-0.3,0-0.5-0.1-0.8-0.1 C9.2,55.6,5.3,59,5,63.6s3.2,8.4,7.8,8.7c0.8,0,1.5,0,2.2-0.2c2.5,2.9,8,5.1,14.6,5.5c3.7,0.2,7.2-0.2,10-1.1 c1.7,1.8,4.3,3.1,7.3,3.2c4,0.2,7.5-1.6,9.3-4.3c2.1,1,4.6,1.7,7.4,1.9c4.5,0.3,8.6-1,11.1-3c2,1.7,4.6,2.8,7.6,3 C89,77.6,94.6,73,95,67C95.3,61.5,91.1,56.7,85.3,55.6z" data-idx="131"></path>
  
</g><g data-idx="133" transform="matrix(1,0,0,1,114.68779754638672,0)">
<path transform="matrix(0.7116666436195374,0,0,0.7116666436195374,63.39184927940369,97.04435205459595)" fill="#ffffff" d="M95,62.4c-0.5-5.9-5.7-10.3-11.9-10.5c0-0.6,0-1.2,0-1.8c-0.7-7.6-7.9-13.1-16.1-12.4c-0.9,0.1-1.9,0.3-2.7,0.5 c0-0.1,0-0.2,0-0.2c-1-10.9-10.7-19-21.6-18c-9.8,0.9-17.3,8.8-18,18.3C12.8,39.5,4.1,49.2,5.1,60C6.1,71,16.5,79,28.4,77.9 c3.4-0.3,6.4-1.3,9.2-2.8c5,3.7,12.4,5.7,20.5,4.9c6.9-0.6,13.1-3.2,17.3-6.8c2.3,1.4,5.2,2.2,8.2,1.9C90.4,74.4,95.5,68.8,95,62.4z" data-idx="134"></path>
  
</g><g data-idx="136" transform="matrix(1,0,0,1,114.68779754638672,0)">
<path transform="matrix(0.7116666436195374,0,0,0.7116666436195374,-192.60815834999084,97.04435205459595)" fill="#ffffff" d="M95,62.4c-0.5-5.9-5.7-10.3-11.9-10.5c0-0.6,0-1.2,0-1.8c-0.7-7.6-7.9-13.1-16.1-12.4c-0.9,0.1-1.9,0.3-2.7,0.5 c0-0.1,0-0.2,0-0.2c-1-10.9-10.7-19-21.6-18c-9.8,0.9-17.3,8.8-18,18.3C12.8,39.5,4.1,49.2,5.1,60C6.1,71,16.5,79,28.4,77.9 c3.4-0.3,6.4-1.3,9.2-2.8c5,3.7,12.4,5.7,20.5,4.9c6.9-0.6,13.1-3.2,17.3-6.8c2.3,1.4,5.2,2.2,8.2,1.9C90.4,74.4,95.5,68.8,95,62.4z" data-idx="137"></path>
  
</g></g>
  </pattern>
</defs>
<rect x="0" y="0" width="1084" height="322" fill="url(#pid-0.9537317187634635)" data-idx="139"></rect><text data-watermark="true" text-anchor="middle" dominant-baseline="middle" stroke-opacity="0.1" fill="black" fill-opacity="0.1" stroke="white" stroke-width="1" font-size="15.0" x="542.0" y="161.0" data-idx="140" style="opacity: 1; font-size: 15px;">LOADING.IO</text></svg>